<svg xmlns="http://www.w3.org/2000/svg" viewBox="0 0 800 800" width="800" height="800"><g transform="translate(59.0 119.0) rotate(0.0 95.0 141.0) scale(1.001206717570124 1.0027201450744039)"><svg width="189.771" height="281.235" viewBox="0 0 189.771 281.235"><path d="m68.674 153.75 17.042 4.876-34.393 120.192-17.042-4.876z" fill="#fc8e04"/><path d="M51.322 281.235c-.223 0-.446-.03-.664-.093l-17.042-4.877a2.413 2.413 0 0 1-1.655-2.983l34.394-120.194a2.413 2.413 0 0 1 2.983-1.655l17.042 4.877a2.413 2.413 0 0 1 1.655 2.983L53.641 279.487a2.413 2.413 0 0 1-2.319 1.748zm-14.059-8.944 12.404 3.55 33.066-115.557-12.404-3.55z" fill="#000008"/><path d="M164.038 28.873 71.565 2.412 2.412 69.266l23.321 93.315 92.473 26.461 69.153-66.854z" fill="#fff"/><path d="M118.207 191.454c-.222 0-.444-.03-.664-.093L25.069 164.9a2.412 2.412 0 0 1-1.676-1.734L.072 69.851a2.412 2.412 0 0 1 .663-2.319L69.888.678a2.411 2.411 0 0 1 2.341-.585l92.473 26.461a2.412 2.412 0 0 1 1.676 1.734l23.321 93.314a2.412 2.412 0 0 1-.663 2.319l-69.152 66.854a2.413 2.413 0 0 1-1.677.679zm-90.471-30.809 89.795 25.694 67.15-64.918-22.646-90.612L72.241 5.115 5.09 70.033z" fill="#000008"/><path d="M146.698 45.637 77.413 25.812 25.601 75.901l17.473 69.916 69.285 19.826 51.812-50.09z" fill="#ff3479"/><path d="M112.358 168.054c-.222 0-.444-.03-.664-.093l-69.285-19.825a2.412 2.412 0 0 1-1.676-1.734L23.261 76.486a2.412 2.412 0 0 1 .663-2.319l51.812-50.09a2.416 2.416 0 0 1 2.341-.585l69.285 19.826a2.412 2.412 0 0 1 1.676 1.734l17.473 69.915a2.412 2.412 0 0 1-.663 2.319l-51.812 50.09a2.417 2.417 0 0 1-1.678.678zm-67.282-24.173 66.606 19.059 49.811-48.154-16.798-67.213-66.606-19.06-49.811 48.155z" fill="#000008"/><g fill="#fff"><circle cx="86.389" cy="125.421" r="10.901"/><path d="m118.35 55.829-22.271-6.373-10.657 50.177 15.429 4.415z"/></g></svg></g><g transform="translate(29.0 717.0) rotate(0.0 370.5 5.0) scale(0.9967233225186835 1.036376826614157)"><svg width="743.436" height="9.649" viewBox="0 0 743.436 9.649"><g fill="#000008"><path d="M199.384 9.649H3.824a4.824 4.824 0 0 1 0-9.649h195.56a4.824 4.824 0 0 1 0 9.649zm538.228 0h-195.56a4.824 4.824 0 0 1 0-9.649h195.56a4.824 4.824 0 0 1 0 9.649z"/></g></svg></g><g transform="translate(252.0 223.0) rotate(0.0 22.0 27.0) scale(1.0368066355624674 1.0371252424760404)"><svg width="42.438" height="52.067" viewBox="0 0 42.438 52.067"><g fill="#000008"><path d="M20.878 52.067a2.412 2.412 0 0 1-1.746-4.077l19.147-20.088a2.413 2.413 0 0 1 3.492 3.329L22.624 51.319a2.405 2.405 0 0 1-1.746.748zm-18.466-.606a2.412 2.412 0 0 1-1.746-4.077l20.489-21.495-2.819-23.186a2.413 2.413 0 0 1 4.79-.582l2.957 24.317a2.413 2.413 0 0 1-.648 1.956L4.158 50.714a2.403 2.403 0 0 1-1.746.747z"/></g></svg></g><g transform="translate(466.0 217.0) rotate(0.0 102.5 65.0) scale(1.0036424878583738 1.0038997644696706)"><svg width="204.256" height="129.495" viewBox="0 0 204.256 129.495"><g fill="#000008"><path d="M176.646 129.495a2.408 2.408 0 0 1-2.054-1.145C145.106 80.637 99.787 51.813 66.961 36.035 31.29 18.889 2.232 13.001 1.942 12.944a2.412 2.412 0 0 1-1.896-2.835 2.42 2.42 0 0 1 2.835-1.897c.295.058 29.845 6.033 66.044 23.414 33.448 16.06 79.645 45.438 109.771 94.189a2.412 2.412 0 0 1-2.05 3.68zm25.2-34.867a2.409 2.409 0 0 1-2.008-1.073C161.2 35.687 97.518 4.895 96.879 4.59A2.411 2.411 0 1 1 98.952.234c.651.31 65.503 31.639 104.897 90.642a2.413 2.413 0 0 1-2.003 3.752z"/></g></svg></g><g transform="translate(59.0 310.0) rotate(0.0 350.0 229.5) scale(1.0009594911693924 1.0008700373527315)"><svg width="699.329" height="458.601" viewBox="0 0 699.329 458.601"><path d="m89.417 45.501 156.296 99.402-12.425 30.082L73.734 72.737" fill="#ffccb6"/><path d="M233.288 177.589a2.6 2.6 0 0 1-1.404-.412L72.33 74.93a2.603 2.603 0 1 1 2.809-4.384l156.933 100.567 10.402-25.185-154.455-98.23a2.604 2.604 0 0 1 2.795-4.394l156.297 99.402a2.604 2.604 0 0 1 1.009 3.19l-12.426 30.082a2.604 2.604 0 0 1-2.406 1.611z" fill="#000008"/><path d="M75.6 71.804c-15.627 3.732-28.159-6.246-28.159-6.246L62.553 11.9l13.516 10.418 15.392 23.596" fill="#ffccb6"/><path d="M68.436 75.251c-12.827 0-22.152-7.287-22.616-7.656a2.604 2.604 0 0 1-.884-2.742l15.111-53.658a2.6 2.6 0 0 1 1.688-1.766 2.597 2.597 0 0 1 2.407.409l13.516 10.418c.232.179.432.395.592.64l15.392 23.596a2.604 2.604 0 0 1-4.362 2.845L74.129 24.11l-10.114-7.796L50.45 64.481c3.502 2.253 13.229 7.493 24.546 4.791a2.604 2.604 0 0 1 1.209 5.065 33.376 33.376 0 0 1-7.769.914z" fill="#000008"/><path d="M466.535 51.522c-25.018 22.033-58.694 20.073-75.468 11.6l1.987-34.091c.735-12.601-8.598-23.579-21.161-24.798a256.812 256.812 0 0 0-49.695-.018c-12.561 1.217-21.889 12.199-21.155 24.798l2.005 34.394c-16.959 8.229-50.158 9.898-74.893-11.886-22.625-19.925-33.434 7.815-16.349 20.927 13.829 10.613 45.69 28.501 92.158 6.683l.087 1.491h85.995l.103-1.766c46.78 22.236 78.848 4.248 92.734-6.408 17.086-13.111 6.277-40.852-16.348-20.926z" fill="#03ca74"/><path d="M261.317 91.825c-23.557.001-40.924-9.745-50.979-17.463-8.118-6.23-10.031-14.778-9.115-20.701.805-5.205 3.854-9.243 8.158-10.802 3.329-1.208 10.406-1.923 20.37 6.853 24.058 21.189 55.443 18.857 70.794 12.191l-1.909-32.749c-.815-13.984 9.433-25.993 23.331-27.339a260.5 260.5 0 0 1 50.16.018c13.9 1.349 24.15 13.358 23.336 27.339l-1.894 32.474c15.345 6.963 46.906 9.614 71.371-11.934 9.964-8.774 17.039-8.058 20.37-6.853 4.303 1.56 7.353 5.598 8.158 10.802.916 5.922-.998 14.471-9.115 20.701-10.069 7.728-27.437 17.459-50.973 17.461-12.244 0-26.148-2.629-41.578-9.547a2.405 2.405 0 0 1-1.756.758h-85.995a2.399 2.399 0 0 1-1.564-.576c-15.263 6.782-29.037 9.367-41.17 9.367zm-47.62-44.88c-.949 0-1.843.149-2.673.45-2.66.964-4.494 3.517-5.034 7.004-.673 4.349.832 11.184 7.285 16.136 14.647 11.241 45.773 27.021 89.664 6.413a2.409 2.409 0 0 1 3.255 1.263h81.632a2.413 2.413 0 0 1 3.36-1.533c44.178 20.999 75.495 5.164 90.23-6.143 6.453-4.953 7.957-11.788 7.284-16.136-.539-3.487-2.374-6.041-5.033-7.004-4.02-1.457-9.536.652-15.537 5.937-27.029 23.805-62.278 19.959-78.15 11.943a2.413 2.413 0 0 1-1.32-2.293l1.987-34.091c.663-11.383-7.676-21.159-18.986-22.257a255.754 255.754 0 0 0-49.229-.018c-11.307 1.096-19.644 10.872-18.979 22.256l2.005 34.394a2.414 2.414 0 0 1-1.355 2.311c-9.786 4.749-22.837 6.768-35.811 5.543-11.003-1.04-27.175-4.97-41.729-17.789-4.763-4.192-9.22-6.386-12.866-6.386z" fill="#000008"/><path d="M92.394 48.713S90.86 9.277 65.44 3.507C44.937-1.146 46.597 13.4 56.367 19.106c4.164 2.405 11.436 4.971 11.436 4.971s-6.384 21.463 6.171 30.151" fill="#ffccb6"/><path d="M73.972 56.831c-.512 0-1.027-.15-1.479-.463-11.453-7.924-9.132-24.468-7.78-30.658-2.554-.976-6.755-2.678-9.648-4.349-6.324-3.694-9.707-10.543-7.711-15.599C48.575 2.667 52.626-2.07 66.016.969c11.326 2.571 19.937 11.726 24.9 26.475 3.639 10.811 4.062 20.751 4.079 21.169a2.603 2.603 0 0 1-5.203.204c-.015-.375-1.768-37.513-24.929-42.771-8.133-1.845-11.879-.37-12.667 1.627-.908 2.299 1.121 6.637 5.483 9.185 3.893 2.248 10.918 4.739 10.988 4.764a2.604 2.604 0 0 1 1.629 3.197c-.058.194-5.684 19.766 5.158 27.268a2.602 2.602 0 0 1-1.482 4.744z" fill="#000008"/><path d="M45.862 16.309s6.179 2.981 14.928 5.485c8.745 2.502 6.594 15.958-3.306 14.096-9.899-1.862-10.449-1.584-17.01-5.838-7.367-4.778-3.485-17.495 5.388-13.743z" fill="#ffccb6"/><path d="M59.311 38.67c-.731 0-1.501-.071-2.309-.223a454.386 454.386 0 0 0-2.951-.546c-7.48-1.372-8.896-1.712-14.993-5.666-5.369-3.481-6.154-10.13-3.812-14.547 2.289-4.314 6.855-5.797 11.63-3.777l.116.053c.061.029 6.108 2.921 14.514 5.327 6.054 1.732 8.175 7.508 7.097 12.063-.888 3.747-4.116 7.316-9.292 7.316zM42.77 18.227c-1.532 0-2.42.95-2.925 1.901-1.217 2.295-.781 5.906 2.045 7.739 5.4 3.501 6.129 3.634 13.1 4.913.892.164 1.876.344 2.976.551 4.283.805 5.345-2.228 5.57-3.176.52-2.196-.343-4.966-3.462-5.858-8.483-2.428-14.548-5.264-15.277-5.611-.777-.323-1.449-.459-2.027-.459z" fill="#000008"/><path d="M43.288 32.61s7.067 2.364 14.684 3.887c7.614 1.522 4.629 14.229-3.978 13.952-4.254-.137-9.298-1.669-15.11-5.161-6.525-3.921-3.371-15.422 4.404-12.678z" fill="#ffccb6"/><path d="M54.28 53.057c-.122 0-.245-.002-.37-.006-5.02-.162-10.525-2.023-16.366-5.532-4.873-2.928-5.763-8.973-3.808-13.125 1.907-4.052 6.082-5.759 10.395-4.247.381.126 7.17 2.361 14.353 3.798 4.364.873 6.934 4.619 6.392 9.322-.555 4.8-4.445 9.79-10.596 9.79zM40.998 34.793c-1.126 0-1.98.608-2.551 1.819-.971 2.06-.57 5.033 1.778 6.444 5.07 3.047 9.73 4.659 13.853 4.791l.183.003c3.148 0 5.149-2.641 5.441-5.18.134-1.158.02-3.168-2.24-3.62-7.688-1.537-14.704-3.873-14.999-3.971l-.04-.014c-.515-.181-.991-.272-1.425-.272z" fill="#000008"/><path d="M39.493 45.647s7.2 3.58 14.942 4.21c7.739.631 6.513 12.209-3.459 13.308-4.231.466-7.958-.268-14.135-3.064-6.935-3.138-5.389-16.279 2.652-14.454z" fill="#ffccb6"/><path d="M48.69 65.899c-3.853 0-7.629-1.029-12.922-3.425-5.338-2.417-6.923-9.031-5.329-13.773 1.475-4.391 5.261-6.586 9.63-5.592.201.045.396.115.581.207.067.034 6.872 3.367 13.996 3.948 4.377.357 7.358 3.461 7.419 7.724.067 4.751-3.622 9.976-10.804 10.767-.872.094-1.723.144-2.571.144zM38.017 48.068c-.855 0-1.998.374-2.643 2.292-.858 2.554-.026 6.21 2.54 7.372 5.582 2.526 8.928 3.271 12.776 2.847 4.576-.504 6.195-3.576 6.168-5.517-.016-1.093-.485-2.433-2.637-2.608-7.312-.596-14.047-3.602-15.575-4.323a3.33 3.33 0 0 0-.629-.063z" fill="#000008"/><path d="m604.51 45.501-156.297 99.402 12.426 30.082L622.167 71.659" fill="#ffccb6"/><path d="M460.638 177.589a2.604 2.604 0 0 1-2.406-1.61l-12.425-30.082a2.603 2.603 0 0 1 1.009-3.19l156.297-99.402a2.603 2.603 0 1 1 2.795 4.394l-154.454 98.23 10.403 25.188 158.907-101.65a2.604 2.604 0 1 1 2.805 4.386L462.041 177.178a2.602 2.602 0 0 1-1.403.411z" fill="#000008"/><path d="M602.221 50.079s3.889-19.328 20.6-35.641c13.733-13.406 16.349.654 12.425 8.175-2.233 4.28-7.194 16.676-7.194 16.676s46.431-3.597 57.549-2.943c11.117.654 10.136 13.079-.327 13.406s-30.082 5.232-30.082 5.232 28.12 6.54 34.987 8.175 11.771 18.311-3.597 14.387-32.371-5.559-32.371-5.559 16.022 14.714 23.543 20.927 1.308 16.676-9.155 8.175-53.299-26.16-53.299-26.16" fill="#ffccb6"/><path d="M675.929 106.882c-2.592 0-5.671-1.091-8.973-3.773-10.048-8.165-52.224-25.597-52.648-25.772a2.604 2.604 0 0 1 1.984-4.814c1.764.727 43.311 17.902 53.947 26.545 3.771 3.064 6.621 3.076 7.676 1.79 1.064-1.3.675-3.876-1.82-5.938-7.487-6.185-22.988-20.414-23.645-21.016a2.604 2.604 0 0 1 2.01-4.509c.702.067 17.38 1.7 32.766 5.628 3.058.781 5.344.675 6.276-.292.689-.714.812-2.206.318-3.894-.729-2.493-2.593-4.754-4.244-5.147-6.782-1.615-34.693-8.106-34.975-8.172a2.604 2.604 0 0 1-.041-5.061c.812-.203 20.012-4.976 30.632-5.308 3.906-.122 5.715-2.277 5.741-4.228.03-2.218-2.123-3.78-5.485-3.978-10.811-.632-56.732 2.904-57.195 2.94a2.603 2.603 0 0 1-2.618-3.563c.205-.511 5.035-12.567 7.304-16.913 1.902-3.646 1.706-8.556.166-9.701-.789-.589-3.466-.287-8.466 4.593-15.892 15.514-19.828 34.109-19.866 34.295a2.6 2.6 0 0 1-3.068 2.033 2.601 2.601 0 0 1-2.035-3.063c.165-.821 4.243-20.308 21.333-36.99 7.859-7.671 12.607-6.98 15.209-5.046 4.179 3.106 4.062 11.077 1.343 16.288-1.375 2.636-3.875 8.588-5.508 12.56 11.757-.871 44.415-3.178 53.707-2.629 7.218.424 10.444 5.091 10.387 9.247-.062 4.486-3.786 9.142-10.785 9.36-5.031.157-12.369 1.435-18.472 2.678a8329.814 8329.814 0 0 1 23.899 5.593c4.066.969 6.966 5.093 8.036 8.751 1.047 3.584.475 6.854-1.572 8.973-1.628 1.686-4.915 3.352-11.308 1.719-8.522-2.176-17.638-3.647-23.947-4.515 5.331 4.83 12.942 11.654 17.42 15.353 4.997 4.128 5.212 9.979 2.531 13.25-1.355 1.655-3.446 2.726-6.014 2.726z" fill="#000008"/><path d="m269.028 233.842-139.199-73.826c-11.307-5.997-25.234.291-28.213 12.739L59.76 347.631l34.66 9.809 35.968-156.951 114.443 62.126z" fill="#ffccb6"/><path d="M94.421 360.044c-.237 0-.477-.033-.709-.099l-34.66-9.809a2.604 2.604 0 0 1-1.823-3.111l41.855-174.877c1.609-6.722 6.146-12.208 12.444-15.053s13.414-2.619 19.521.62l139.199 73.826a2.604 2.604 0 0 1 .773 3.975l-24.196 28.774a2.603 2.603 0 0 1-3.234.613l-111.43-60.491-35.203 153.61a2.605 2.605 0 0 1-2.537 2.022zm-31.547-14.237 29.621 8.383 35.356-154.282a2.604 2.604 0 0 1 3.779-1.707l112.576 61.113 20.755-24.682-136.353-72.317a16.863 16.863 0 0 0-14.938-.475c-4.82 2.177-8.292 6.375-9.522 11.52z" fill="#000008"/><path d="M2.412 386.135h98.049v21.636H2.412z" fill="#ffe732"/><path d="M100.462 410.183H2.413a2.412 2.412 0 0 1-2.412-2.412v-21.636a2.412 2.412 0 0 1 2.412-2.412h98.049a2.412 2.412 0 0 1 2.412 2.412v21.636a2.412 2.412 0 0 1-2.412 2.412zm-95.637-4.824H98.05v-16.812H4.825z" fill="#000008"/><path d="m119.45 287.904-49.331-12.595-12.822 60.989a28.936 28.936 0 0 1-23.388 21.246l-6.268 1.011a29.671 29.671 0 0 0-24.319 23.224l-.91 4.356h98.049l2.812-34.591z" fill="#1691f7"/><path d="M100.462 388.547H2.413a2.41 2.41 0 0 1-2.361-2.906l.91-4.356c2.699-12.919 13.267-23.011 26.297-25.112l6.268-1.011a26.538 26.538 0 0 0 21.423-19.42l12.81-60.93a2.41 2.41 0 0 1 2.957-1.842l49.331 12.595a2.413 2.413 0 0 1 1.741 2.932l-16.127 63.443-2.795 34.389a2.414 2.414 0 0 1-2.405 2.218zm-95.081-4.824h92.856l2.631-32.375c.011-.135.033-.268.066-.399l15.583-61.304-44.557-11.376-12.304 58.525a3.21 3.21 0 0 1-.026.114 31.368 31.368 0 0 1-25.338 23.018l-6.268 1.011c-11.07 1.786-20.049 10.36-22.342 21.336z" fill="#000008"/><path d="m422.949 233.842 139.199-73.826c11.307-5.997 25.234.291 28.213 12.739l41.856 174.877-34.66 9.809-35.968-156.951-114.443 62.126z" fill="#ffccb6"/><path d="M597.556 360.044a2.604 2.604 0 0 1-2.537-2.022l-35.202-153.608-111.43 60.491a2.602 2.602 0 0 1-3.234-.613l-24.196-28.774a2.6 2.6 0 0 1 .773-3.975l139.199-73.826c6.105-3.239 13.22-3.464 19.521-.62 6.299 2.844 10.835 8.331 12.444 15.053l41.855 174.877a2.604 2.604 0 0 1-1.823 3.111l-34.66 9.809a2.683 2.683 0 0 1-.71.097zm-35.967-162.158a2.6 2.6 0 0 1 2.537 2.022l35.356 154.282 29.621-8.383-41.274-172.447a16.86 16.86 0 0 0-9.522-11.52c-4.822-2.176-10.267-2.003-14.938.475l-136.353 72.317 20.755 24.682 112.576-61.113a2.61 2.61 0 0 1 1.242-.315z" fill="#000008"/><path d="M591.516 386.135h98.049v21.636h-98.049z" fill="#ffe732"/><path d="M689.565 410.183h-98.049a2.412 2.412 0 0 1-2.412-2.412v-21.636a2.412 2.412 0 0 1 2.412-2.412h98.049a2.412 2.412 0 0 1 2.412 2.412v21.636a2.412 2.412 0 0 1-2.412 2.412zm-95.637-4.824h93.225v-16.812h-93.225z" fill="#000008"/><path d="m572.527 287.904 49.331-12.595 12.822 60.989a28.936 28.936 0 0 0 23.388 21.246l6.268 1.011a29.671 29.671 0 0 1 24.319 23.224l.91 4.356h-98.049l-2.812-34.591z" fill="#1691f7"/><path d="M689.565 388.547h-98.049a2.41 2.41 0 0 1-2.404-2.217l-2.796-34.389-16.127-63.443a2.413 2.413 0 0 1 1.741-2.932l49.331-12.595a2.41 2.41 0 0 1 2.957 1.842l12.81 60.93a26.538 26.538 0 0 0 21.424 19.42l6.268 1.011c13.029 2.101 23.597 12.193 26.297 25.112l.91 4.356a2.415 2.415 0 0 1-.489 2.015 2.416 2.416 0 0 1-1.873.89zm-95.825-4.824h92.856l-.303-1.451c-2.294-10.976-11.272-19.55-22.342-21.336l-6.268-1.011a31.366 31.366 0 0 1-25.339-23.018 1.559 1.559 0 0 1-.026-.114l-12.304-58.525-44.557 11.376 15.583 61.304c.033.131.056.264.066.399z" fill="#000008"/><path d="M438.252 225.454c18.424-16.515 29.58-38.089 29.58-61.695 0-51.949-54.019-94.061-120.656-94.061S226.52 111.81 226.52 163.759c0 23.606 11.156 45.179 29.58 61.695-36.76 17.164-60.534 44.459-60.534 75.201 0 51.949 67.878 94.061 151.61 94.061s151.61-42.113 151.61-94.061c0-30.742-23.773-58.037-60.534-75.201z" fill="#ffccb6"/><path d="M347.176 397.32c-40.975 0-79.535-9.923-108.577-27.941-29.429-18.258-45.637-42.665-45.637-68.724 0-29.964 21.29-57.47 58.568-75.894-17.84-17.193-27.614-38.719-27.614-61.002 0-53.301 55.294-96.665 123.26-96.665s123.26 43.364 123.26 96.665c0 22.283-9.774 43.809-27.614 61.002 37.278 18.423 58.568 45.929 58.568 75.894 0 26.059-16.208 50.465-45.637 68.724-29.041 18.017-67.602 27.941-108.577 27.941zm0-325.019c-65.095 0-118.053 41.028-118.053 91.458 0 21.936 10.197 43.157 28.714 59.756a2.603 2.603 0 0 1-.636 4.298c-37.516 17.517-59.032 44.066-59.032 72.842 0 50.43 66.844 91.458 149.007 91.458s149.007-41.028 149.007-91.458c0-28.775-21.517-55.325-59.032-72.842a2.604 2.604 0 0 1-.636-4.298c18.517-16.599 28.714-37.821 28.714-59.756 0-50.43-52.958-91.458-118.053-91.458z" fill="#000008"/><path d="M249.599 249.302s-33.051-9.908-92.281-.478c12.464 4.868 21.221 12.403 21.221 12.403s-31.841 11.74-41.092 16.539l27.118 6.45s-13.682 13.759-20.287 27.357c33.838-24.808 90.095-40.085 105.321-44.078" fill="#ffe732"/><path d="M144.279 313.985a2.412 2.412 0 0 1-2.17-3.466c4.889-10.064 13.376-20.037 17.835-24.922l-23.055-5.483a2.413 2.413 0 0 1-.552-4.488c7.373-3.825 28.327-11.788 37.276-15.139-3.563-2.554-9.707-6.5-17.174-9.416a2.413 2.413 0 0 1 .499-4.629c59.092-9.407 91.98.139 93.353.55a2.411 2.411 0 0 1-1.383 4.621c-.082-.024-8.34-2.447-23.644-3.699-12.843-1.052-33.175-1.452-59.495 2.104 8.523 4.416 14.052 9.13 14.343 9.381a2.41 2.41 0 0 1-.738 4.091c-.264.097-22.058 8.144-34.585 13.542l20.334 4.836a2.412 2.412 0 0 1 1.153 4.047c-.103.104-7.98 8.077-14.51 17.683 30.635-19.193 73.208-32.14 97.221-38.438a2.412 2.412 0 0 1 1.224 4.667c-26.116 6.849-74.421 21.633-104.507 43.689a2.39 2.39 0 0 1-1.425.469z" fill="#000008"/><path d="M436.231 249.302s53.735-3.99 112.964 5.44c-12.464 4.868-21.221 12.403-21.221 12.403s13.607 6.863 22.858 11.662l-19.826 7.697s5.291 9.96 11.895 23.558c-33.838-24.808-91.445-38.574-106.671-42.567" fill="#ffe732"/><path d="M542.902 312.474c-.5 0-1.001-.155-1.426-.467-31.352-22.984-83.053-36.301-102.517-41.314-1.269-.327-2.387-.615-3.341-.865a2.413 2.413 0 0 1 1.224-4.667c.947.249 2.06.535 3.32.86 18.216 4.692 64.319 16.566 96.544 36.919-4.535-9.091-7.79-15.227-7.831-15.304a2.412 2.412 0 0 1 1.257-3.381l14.835-5.759c-8.453-4.341-17.967-9.14-18.08-9.197a2.413 2.413 0 0 1-.488-3.983c.291-.25 5.833-4.977 14.372-9.396-55.07-7.729-103.854-4.25-104.363-4.212a2.41 2.41 0 1 1-.357-4.811c.54-.041 54.698-3.902 113.522 5.463a2.413 2.413 0 0 1 .499 4.629c-7.777 3.037-14.118 7.191-17.604 9.726 4.649 2.354 13.126 6.658 19.473 9.951a2.41 2.41 0 0 1-.237 4.389l-17.309 6.72a866.342 866.342 0 0 1 10.675 21.232 2.412 2.412 0 0 1-2.168 3.467z" fill="#000008"/><circle cx="306.045" cy="195.316" fill="#fff" r="29.678"/><path d="M306.045 227.407c-17.694 0-32.09-14.396-32.09-32.09s14.396-32.09 32.09-32.09c17.695 0 32.091 14.396 32.091 32.09-.001 17.694-14.396 32.09-32.091 32.09zm0-59.356c-15.034 0-27.266 12.231-27.266 27.266s12.231 27.266 27.266 27.266 27.267-12.231 27.267-27.266c-.001-15.035-12.232-27.266-27.267-27.266z" fill="#000008"/><circle cx="305.4" cy="195.157" fill="#050001" r="12.199"/><circle cx="335.179" cy="235.08" fill="#050001" r="5.212"/><circle cx="358.924" cy="235.08" fill="#050001" r="5.212"/><path d="M285.52 149.778a12.154 12.154 0 0 1-6.949-4.963c-3.769-5.59-2.293-13.177 3.297-16.946 23.36-15.752 50.284-1.696 51.421-1.087 5.946 3.175 8.192 10.57 5.015 16.517-3.162 5.924-10.518 8.184-16.45 5.05-.389-.196-13.403-8.45-26.336-.238-3.109 1.974-6.701 2.553-9.998 1.667z" fill="#ffe732"/><path d="M288.62 152.601c-1.248 0-2.497-.163-3.726-.493a14.613 14.613 0 0 1-8.324-5.945c-4.505-6.683-2.734-15.787 3.949-20.293 24.585-16.579 52.724-1.849 53.908-1.213 3.441 1.838 5.963 4.908 7.098 8.645s.746 7.691-1.094 11.136c-3.779 7.078-12.618 9.792-19.705 6.046s-.08-.044-.2-.113c-2.947-1.713-13.367-6.792-23.717-.222-2.553 1.62-5.369 2.452-8.189 2.452zm-2.474-5.152c2.677.718 5.547.232 8.077-1.373 12.645-8.032 25.184-1.936 28.728.124 4.775 2.525 10.694.707 13.225-4.035a9.729 9.729 0 0 0 .733-7.462 9.725 9.725 0 0 0-4.757-5.792c-1.083-.581-26.737-14.01-48.936.959-4.478 3.02-5.665 9.119-2.646 13.597a9.788 9.788 0 0 0 5.576 3.982z" fill="#000008"/><circle cx="388.88" cy="195.316" fill="#fff" r="29.678"/><path d="M388.879 227.407c-17.694 0-32.09-14.396-32.09-32.09s14.396-32.09 32.09-32.09c17.695 0 32.091 14.396 32.091 32.09s-14.395 32.09-32.091 32.09zm0-59.356c-15.034 0-27.266 12.231-27.266 27.266s12.231 27.266 27.266 27.266 27.267-12.231 27.267-27.266-12.231-27.266-27.267-27.266z" fill="#000008"/><circle cx="388.235" cy="195.157" fill="#050001" r="12.199"/><path d="M368.355 149.778a12.154 12.154 0 0 1-6.949-4.963c-3.769-5.59-2.293-13.177 3.297-16.946 23.36-15.752 50.284-1.696 51.421-1.087 5.946 3.175 8.192 10.57 5.015 16.517-3.162 5.924-10.518 8.184-16.45 5.05-.389-.196-13.403-8.45-26.336-.238-3.109 1.974-6.701 2.553-9.998 1.667z" fill="#ffe732"/><path d="M371.456 152.601c-1.249 0-2.498-.163-3.727-.493a14.613 14.613 0 0 1-8.324-5.945c-4.505-6.683-2.734-15.787 3.949-20.293 24.585-16.579 52.723-1.849 53.908-1.213 3.441 1.838 5.963 4.908 7.098 8.645s.746 7.691-1.094 11.136c-3.778 7.078-12.618 9.792-19.705 6.046s-.08-.044-.2-.113c-2.947-1.713-13.368-6.793-23.717-.222-2.552 1.62-5.368 2.452-8.188 2.452zm-2.475-5.152c2.681.721 5.549.232 8.077-1.373 12.645-8.032 25.184-1.936 28.728.124 4.776 2.525 10.693.707 13.225-4.035a9.729 9.729 0 0 0 .733-7.462 9.725 9.725 0 0 0-4.757-5.792c-1.083-.581-26.736-14.01-48.936.959-4.478 3.02-5.665 9.119-2.646 13.597a9.788 9.788 0 0 0 5.576 3.982z" fill="#000008"/><path d="M261.834 339.783s-61.472 30.518-71.064 85.451c18.311-9.155 55.369-23.979 55.369-23.979s4.796 34.878 13.951 49.701c13.515-13.951 36.622-36.186 36.622-36.186s29.646 27.902 38.366 41.418c14.387-15.259 31.39-44.033 31.39-44.033s31.39 23.107 43.597 34.878c10.899-17.003 18.311-47.521 18.311-47.521s34.442 8.284 59.728 21.799c-8.719-27.03-33.57-62.78-67.576-81.527" fill="#ffe732"/><path d="M335.078 458.601a2.417 2.417 0 0 1-2.028-1.105c-7.284-11.292-29.975-33.309-36.326-39.385-5.54 5.353-23.659 22.919-34.901 34.523a2.387 2.387 0 0 1-1.993.72 2.417 2.417 0 0 1-1.792-1.13c-7.808-12.641-12.425-38.647-13.832-47.588-9.005 3.646-37.271 15.213-52.355 22.755a2.412 2.412 0 0 1-3.456-2.573c5.075-29.07 24.508-51.243 39.916-64.726 16.611-14.535 31.812-22.153 32.451-22.471a2.412 2.412 0 0 1 2.145 4.32c-.586.292-56.946 28.846-68.79 78.98 19.149-9.1 50.782-21.771 51.126-21.908a2.414 2.414 0 0 1 3.285 1.911c.045.323 4.281 30.603 12.092 46.029 13.565-13.847 34.2-33.713 34.419-33.924a2.411 2.411 0 0 1 3.326-.018c1.146 1.079 26.647 25.134 36.976 39.31 13.581-15.314 28.89-41.124 29.05-41.396.348-.587.927-1 1.595-1.137a2.427 2.427 0 0 1 1.912.421c1.216.895 28.372 20.914 41.65 33.032 9.743-16.826 16.414-44.015 16.484-44.302a2.41 2.41 0 0 1 2.908-1.776c.322.078 30.331 7.369 54.853 19.247-9.744-24.929-32.943-57.16-64.43-74.518a2.412 2.412 0 1 1 2.33-4.225c35.26 19.438 59.914 55.642 68.707 82.899a2.414 2.414 0 0 1-3.433 2.868c-21-11.225-48.75-18.89-56.849-20.996-1.987 7.575-8.682 31.32-18.022 45.893a2.414 2.414 0 0 1-3.706.434c-10.124-9.762-33.972-27.693-41.225-33.093-4.362 7.177-18.136 29.23-30.334 42.167a2.393 2.393 0 0 1-1.753.762z" fill="#000008"/><path d="M347.181 251.425c-95.996-1.309-116.894 58.363-97.301 86.724 7.619 11.028 25.438 30.245 97.301 30.082 71.947.163 89.649-19.007 97.3-30.082 19.509-28.238-1.088-88.036-97.3-86.724z" fill="#fc8e04"/><path d="M346.262 370.644c-68.878.002-89.123-17.746-98.366-31.124-9.198-13.314-9.531-31.675-.868-47.919 6.697-12.558 18.338-23.049 33.665-30.34 17.832-8.481 40.217-12.585 66.488-12.248 26.31-.364 48.681 3.763 66.503 12.239 15.311 7.281 26.94 17.763 33.633 30.312 8.675 16.265 8.349 34.641-.851 47.957-5.892 8.527-21.516 31.122-98.396 31.124l-1.808-.001zm.913-4.825.918.001c66.614 0 85.778-16.559 94.404-29.042 8.168-11.824 8.384-28.279.562-42.944-13.897-26.06-48.81-40.629-95.846-39.997h-.066c-.989-.014-1.98-.021-2.96-.021-45.521 0-79.286 14.52-92.903 40.054-7.81 14.644-7.587 31.084.58 42.907 8.625 12.482 27.801 29.042 94.396 29.042h.915z" fill="#000008"/><path d="M347.18 274.073c-70.034-.788-85.281 35.118-70.987 52.183 5.558 6.635 18.559 16.36 70.987 16.262 52.49.098 65.404-9.598 70.987-16.262 14.232-16.991-.795-52.972-70.987-52.183z" fill="#050001"/><path d="M322.878 293.626c5.483-.365 9.632-5.106 9.267-10.589l-.512-7.695c-7.557.262-14.127 1.154-19.777 2.518l.433 6.5c.365 5.483 5.106 9.632 10.589 9.266zm-.512 30.962c-5.195-.445-9.767 3.406-10.211 8.6l-.587 6.857c5.073.737 11.258 1.252 18.827 1.435l.572-6.68a9.441 9.441 0 0 0-8.601-10.212zm49.85-.234c5.195-.445 9.767 3.406 10.211 8.6l.587 6.857c-5.073.737-11.258 1.252-18.827 1.435l-.572-6.68a9.441 9.441 0 0 1 8.601-10.212zm2.848-31.106c5.22.348 9.733-3.602 10.081-8.822l.382-5.742c-5.326-1.432-11.57-2.408-18.802-2.766l-.483 7.25c-.348 5.219 3.602 9.733 8.822 10.08z" fill="#fff"/><path d="M348.203 344.931h-1.836c-51.103 0-65.336-9.144-72.023-17.126-6.125-7.312-7.157-17.221-2.76-26.505 8.994-18.985 37.22-30.062 75.597-29.64.712-.008 1.422-.012 2.126-.012 37.26 0 64.638 11.01 73.458 29.631 4.404 9.297 3.377 19.213-2.748 26.525-12.638 15.085-44.828 17.127-71.814 17.127zm-3.185-68.458c-35.328 0-61.067 9.989-69.074 26.892-3.569 7.535-2.784 15.513 2.099 21.342 11.482 13.708 44.13 15.4 68.148 15.4h1.78c49.683 0 62.8-8.779 68.346-15.399 4.883-5.829 5.662-13.814 2.087-21.362-8.161-17.229-34.808-27.284-71.196-26.86h-.055c-.714-.009-1.429-.013-2.135-.013z" fill="#000008"/><path d="M361.237 78.914h-28.121c-8.381 0-15.383-7.014-16.154-16.183l-.889-10.569c-.878-10.446 6.605-19.462 16.154-19.462h29.898c9.549 0 17.032 9.016 16.154 19.462l-.889 10.569c-.77 9.169-7.772 16.183-16.153 16.183z" fill="#03ca74"/><g fill="#000008"><path d="M361.237 81.326h-28.121c-9.698 0-17.676-7.907-18.557-18.393l-.889-10.569c-.505-5.998 1.453-11.882 5.372-16.145 3.517-3.825 8.199-5.932 13.185-5.932h29.898c4.985 0 9.668 2.106 13.185 5.932 3.919 4.262 5.877 10.147 5.372 16.145l-.889 10.569c-.88 10.486-8.858 18.393-18.556 18.393zm-29.01-46.213c-3.62 0-7.041 1.553-9.633 4.373-3.008 3.271-4.509 7.818-4.117 12.475l.889 10.569c.67 7.966 6.581 13.973 13.75 13.973h28.121c7.169 0 13.08-6.007 13.75-13.973l.889-10.569c.392-4.657-1.109-9.204-4.117-12.475-2.592-2.82-6.013-4.373-9.633-4.373zm-70.265 172.986a2.413 2.413 0 0 1-2.259-1.567c-8.592-22.936 5.862-41.6 10.717-44.837a2.413 2.413 0 0 1 2.676 4.013c-3.986 2.659-16.34 19.201-8.875 39.131a2.411 2.411 0 0 1-2.259 3.26zm171.665 1.749a2.413 2.413 0 0 1-2.235-3.318c11.013-27.207-7.498-41.348-8.291-41.936a2.415 2.415 0 0 1-.507-3.371 2.41 2.41 0 0 1 3.365-.516c.225.165 22.36 16.86 9.905 47.633a2.412 2.412 0 0 1-2.237 1.508zm-85.016-92.015c-.448 0-.896-.125-1.291-.374-30.135-19.086-65.169-8.589-65.519-8.48a2.413 2.413 0 0 1-1.43-4.608c1.495-.464 36.516-11.005 68.243 8.215 33.063-19.954 62.991-7.623 64.266-7.082a2.411 2.411 0 1 1-1.889 4.44c-.29-.122-29.733-12.165-61.099 7.52-.39.246-.836.369-1.281.369zm279.885 270.438a2.405 2.405 0 0 1-2.38-2.054c-.034-.236-.807-5.824 2.905-10.017 2.638-2.979 6.738-4.414 12.135-4.292 9.112.223 15.868-.312 19.278-3.641 1.845-1.8 2.741-4.512 2.741-8.292a2.412 2.412 0 0 1 4.824 0c0 5.147-1.372 8.989-4.195 11.744-4.635 4.523-12.15 5.272-22.766 5.012-3.937-.107-6.726.792-8.38 2.636-2.23 2.489-1.772 6.125-1.768 6.162a2.418 2.418 0 0 1-2.394 2.742zm-561.241.008a2.413 2.413 0 0 1-2.391-2.751c.014-.103.442-3.694-1.768-6.16-1.654-1.844-4.471-2.736-8.38-2.636-10.612.259-18.131-.489-22.766-5.012-2.823-2.755-4.195-6.597-4.195-11.744a2.412 2.412 0 0 1 4.824 0c0 3.78.896 6.492 2.741 8.292 3.411 3.329 10.171 3.863 19.278 3.641 5.401-.125 9.498 1.312 12.135 4.292 3.712 4.193 2.939 9.781 2.905 10.017a2.412 2.412 0 0 1-2.383 2.061zm163.454-51.081c-.896 0-1.755-.5-2.172-1.359-12.36-25.447-.684-43.288-.181-44.035a2.413 2.413 0 0 1 4.006 2.689c-.438.659-10.583 16.392.515 39.239a2.413 2.413 0 0 1-2.168 3.466z"/></g><path d="M469.547 131.048s10.729 7.464 15.861 27.989c-6.997 6.064-17.26 11.196-17.26 11.196s.466-26.123-6.064-34.986c3.731-1.4 7.463-4.199 7.463-4.199zm-15.86 87.699s15.394 9.33 20.992 28.922c-10.729-7.93-36.427-22.216-36.427-22.216zm-11.196 137.147c-13.995 9.796-89.565 45.716-175.399-.117 48.281 18.893 128.05 22.391 167.585-6.647 9.797 7.347 7.814 6.764 7.814 6.764z" fill="#050001"/><path d="M239.57 382.563a2.412 2.412 0 0 1-1.677-4.146l14.461-13.994a2.412 2.412 0 1 1 3.355 3.467l-14.461 13.994a2.404 2.404 0 0 1-1.678.679zm40.119 24.725a2.412 2.412 0 0 1-2.32-3.075l3.731-13.062a2.412 2.412 0 0 1 4.638 1.325l-3.731 13.062a2.413 2.413 0 0 1-2.318 1.75zm63.438-1.4a2.412 2.412 0 0 1-2.398-2.18l-1.399-14.461a2.412 2.412 0 0 1 4.803-.465l1.399 14.461a2.412 2.412 0 0 1-2.405 2.645zm66.244 8.864c-.973 0-1.89-.593-2.256-1.558l-5.132-13.528a2.412 2.412 0 0 1 4.511-1.711l5.132 13.528a2.412 2.412 0 0 1-2.255 3.269zm34.988-28.923a2.405 2.405 0 0 1-1.901-.925l-8.396-10.729a2.411 2.411 0 1 1 3.799-2.973l8.396 10.729a2.411 2.411 0 0 1-1.898 3.898z" fill="#000008"/></svg></g><g transform="translate(551.0 664.0) rotate(-12.369085758563012 24.5 21.5) scale(1.0966139247588569 1.1279576097791302)"><svg width="44.683" height="38.122" viewBox="0 0 44.683 38.122"><path d="M0 .41s12.076 9.152 20.628 28.033c9.377 20.703 32.007 4.175 21.191-12.168C34.046 4.531 18.287-1.714 0 .41z" fill="#1691F7"/></svg></g><g transform="translate(530.0 630.0) rotate(-31.701515541160067 19.5 17.5) scale(0.8728151646039881 0.9181050312155711)"><svg width="44.683" height="38.122" viewBox="0 0 44.683 38.122"><path d="M0 .41s12.076 9.152 20.628 28.033c9.377 20.703 32.007 4.175 21.191-12.168C34.046 4.531 18.287-1.714 0 .41z" fill="#1691F7"/></svg></g></svg>