<?xml version="1.0" encoding="UTF-8"?><svg id="_Слой_1" data-name="Слой 1" xmlns="http://www.w3.org/2000/svg" xmlns:xlink="http://www.w3.org/1999/xlink" viewBox="0 0 1059.53 1057.288" x="0px" y="0px" width="1060px" height="1058px" version="1.1">
  <defs>
    <linearGradient id="_Безымянный_градиент_80" data-name="Безымянный градиент 80" x1="13629.991" y1="811.642" x2="13931.868" y2="908.821" gradientTransform="translate(14405.258) rotate(-180) scale(1 -1)" gradientUnits="userSpaceOnUse">
      <stop offset="0" stop-color="#bfc4d8"/>
      <stop offset="1" stop-color="#2b3656"/>
    </linearGradient>
    <clipPath id="clippath">
      <path d="M733.281,683.354c54.074,43.564,88.303,288.694,64.551,321.886-40.984,57.273-197.522,61.781-231.183,39.901-33.662-21.88-155.953-186.627-103.646-325.236,28.905-76.595,233.011-66.575,270.278-36.551Z" style="fill: none; stroke-width: 0px;"/>
    </clipPath>
    <linearGradient id="_Безымянный_градиент_81" data-name="Безымянный градиент 81" x1="13747.029" y1="676.088" x2="13620.295" y2="998.964" gradientTransform="translate(14405.258) rotate(-180) scale(1 -1)" gradientUnits="userSpaceOnUse">
      <stop offset="0" stop-color="#757d97"/>
      <stop offset=".239" stop-color="#e2e8f7"/>
      <stop offset=".635" stop-color="#757d97"/>
    </linearGradient>
    <radialGradient id="_Безымянный_градиент_92" data-name="Безымянный градиент 92" cx="13840.746" cy="376.863" fx="13840.746" fy="376.863" r="442.011" gradientTransform="translate(-13062.866 -2065.902) rotate(11.512) scale(1 -.865)" gradientUnits="userSpaceOnUse">
      <stop offset=".782" stop-color="#313c5c"/>
      <stop offset="1" stop-color="#757d97"/>
    </radialGradient>
    <radialGradient id="_Безымянный_градиент_98" data-name="Безымянный градиент 98" cx="13710.708" cy="259.04" fx="13710.708" fy="259.04" r="250.65" gradientTransform="translate(13898.314 3956.457) rotate(-163.673) scale(1 -.632)" gradientUnits="userSpaceOnUse">
      <stop offset=".01" stop-color="#e2e8f7"/>
      <stop offset=".061" stop-color="rgba(226, 232, 247, .927)" stop-opacity=".927"/>
      <stop offset=".302" stop-color="rgba(226, 232, 247, .602)" stop-opacity=".602"/>
      <stop offset=".516" stop-color="rgba(226, 232, 247, .344)" stop-opacity=".344"/>
      <stop offset=".696" stop-color="rgba(226, 232, 247, .157)" stop-opacity=".157"/>
      <stop offset=".833" stop-color="rgba(226, 232, 247, .043)" stop-opacity=".043"/>
      <stop offset=".912" stop-color="#e2e8f7" stop-opacity="0"/>
    </radialGradient>
    <linearGradient id="_Безымянный_градиент_100" data-name="Безымянный градиент 100" x1="13990.53" y1="584.987" x2="13809.964" y2="249.508" gradientTransform="translate(14405.258) rotate(-180) scale(1 -1)" gradientUnits="userSpaceOnUse">
      <stop offset=".01" stop-color="#e2e8f7"/>
      <stop offset=".645" stop-color="#757d97"/>
      <stop offset=".956" stop-color="#2b3656"/>
    </linearGradient>
    <radialGradient id="_Безымянный_градиент_72" data-name="Безымянный градиент 72" cx="13506.73" cy="474.25" fx="13506.73" fy="474.25" r="148.074" gradientTransform="translate(2571.751 -12931.246) rotate(98.278) scale(1 -.578)" gradientUnits="userSpaceOnUse">
      <stop offset="0" stop-color="#e2e8f7"/>
      <stop offset=".606" stop-color="rgba(226, 232, 247, .332)" stop-opacity=".332"/>
      <stop offset=".924" stop-color="#e2e8f7" stop-opacity="0"/>
    </radialGradient>
    <linearGradient id="_Безымянный_градиент_80-2" data-name="Безымянный градиент 80" x1="13472.859" y1="852.112" x2="13634.523" y2="931.172" xlink:href="#_Безымянный_градиент_80"/>
    <linearGradient id="_Безымянный_градиент_80-3" data-name="Безымянный градиент 80" x1="14419.096" y1="-326.097" x2="14550.467" y2="-217.242" gradientTransform="translate(14556.06 -435.129) rotate(174.668) scale(1 -1)" xlink:href="#_Безымянный_градиент_80"/>
  </defs>
  <g>
    <path d="M733.281,683.354c54.074,43.564,88.303,288.694,64.551,321.886-40.984,57.273-197.522,61.781-231.183,39.901-33.662-21.88-155.953-186.627-103.646-325.236,28.905-76.595,233.011-66.575,270.278-36.551Z" style="fill: url(#_Безымянный_градиент_80); stroke-width: 0px;"/>
    <g style="clip-path: url(#clippath);">
      <path d="M769.226,1036.809c3.704,0,6.727-2.98,6.77-6.693.444-38.474-6.257-108.737-22.232-178.977-12.696-55.826-35.319-129.414-70.992-162.959-13.925-13.094-28.894-19.151-44.47-18.015-3.731.273-6.532,3.517-6.26,7.247.273,3.729,3.517,6.545,7.247,6.259,11.805-.86,22.999,3.838,34.205,14.375,25.89,24.346,49.708,79.783,67.064,156.096,15.729,69.162,22.331,138.139,21.894,175.817-.043,3.739,2.954,6.806,6.693,6.849.026,0,.054,0,.079,0Z" style="fill: url(#_Безымянный_градиент_81); stroke-width: 0px;"/>
    </g>
  </g>
  <g>
    <g>
      <path d="M308.217,365.055h0c7.172,11.999,17.192,11.379,22.319-1.239l51.992-127.94C405.09,180.355,466.114,9.976,460.41.434c-5.704-9.543-78.613,140.953-101.896,195.267l-53.653,125.16c-5.291,12.344-3.817,32.194,3.356,44.193Z" style="fill: #757d97; stroke-width: 0px;"/>
      <path d="M308.335,310.477c-12.62,13.979-19.662,41.445-15.729,61.348,3.933,19.902,17.352,24.704,29.972,10.725,12.62-13.979,19.662-41.445,15.729-61.348-3.933-19.902-17.352-24.704-29.972-10.725Z" style="fill: #757d97; stroke-width: 0px;"/>
    </g>
    <g style="isolation: isolate;">
      <path d="M240.171,374.228c10.172-65.298,22.422-135.927,66.798-181.691,80.619-83.14,183.771-100.492,301.745-80.618,59.857,10.083,148.893,25.314,211.056,87.863,45.394,45.675,74.715,100.51,77.386,159.509,2.025,44.729-17.139,168.363-27.945,203.259-35.04,113.158-138.498,159.337-223.153,158.224-135.984-1.789-340.883-23.601-398.837-161.817-22.997-54.846-15.99-127.338-7.05-184.729Z" style="fill: url(#_Безымянный_градиент_92); stroke-width: 0px;"/>
      <path d="M240.171,374.228c10.172-65.298,22.422-135.927,66.798-181.691,80.619-83.14,183.771-100.492,301.745-80.618,59.857,10.083,148.893,25.314,211.056,87.863,45.394,45.675,74.715,100.51,77.386,159.509,2.025,44.729-17.139,168.363-27.945,203.259-35.04,113.158-138.498,159.337-223.153,158.224-135.984-1.789-340.883-23.601-398.837-161.817-22.997-54.846-15.99-127.338-7.05-184.729Z" style="fill: url(#_Безымянный_градиент_98); stroke-width: 0px;"/>
      <g>
        <path d="M503.036,218.291c-166.329-29.057-187.699-32.79-222.73,107.684-22.7,91.031-24.406,209.99,7.29,232.939,62.166,45.011,354.955,80.533,393.154,56.998,52.014-32.046,90.067-252.235,56.551-327.225-8.14-18.213-14.021-31.372-234.265-70.397" style="fill: #bfc4d8; stroke-width: 0px;"/>
        <path d="M611.802,630.034c-33.638-.721-76.094-4.345-119.547-10.206-45.488-6.135-88.378-14.139-124.032-23.145-40.77-10.298-69.233-21.16-84.598-32.285-21.166-15.325-26.28-60.836-26.843-96.316-.708-44.599,5.631-98.336,16.955-143.746,17.746-71.167,32.156-107.576,66.044-122.008,32.357-13.778,79.265-5.584,164.42,9.292l.017.003c101.957,18.066,164.784,31.817,197.715,43.275,30.499,10.612,36.254,19.175,41.55,31.027,8.279,18.522,12.845,46.514,13.208,80.951.331,31.5-2.753,67.006-8.918,102.682-10.568,61.146-32.791,133.218-63.47,152.12-9.162,5.644-29.422,8.493-60.316,8.493-3.892,0-7.957-.045-12.185-.136ZM501.857,224.958c-82.599-14.43-128.104-22.379-156.769-10.17-22.317,9.503-37.448,29.563-58.212,112.825-11.055,44.333-17.242,96.765-16.552,140.255.705,44.455,8.647,76.442,21.243,85.562,26.464,19.16,105.949,39.955,202.5,52.977,89.941,12.132,166.959,13.705,183.132,3.741,21.779-13.417,44.776-70.843,57.229-142.896,12.749-73.773,11.451-142.778-3.307-175.801-3.565-7.978-6.382-14.279-33.637-23.762-32.235-11.216-94.397-24.794-195.628-42.731h.002Z" style="fill: url(#_Безымянный_градиент_100); stroke-width: 0px;"/>
        <g>
          <path d="M625.997,315.711c69.869,13.428,75.213,94.302,51.444,110.111-5.033,3.348-9.413,2.875-10.853,2.72-6.836-.738-17.095-8.42-15.518-25.892,3.023-33.491-19.017-46.599-33.62-46.993-3.18-.086-31.276.217-38.327,36.843-3.424,17.784-16.839,22.392-25.271,19.984-9.833-2.808-16.075-14.236-14.21-26.015,7.32-46.251,44.444-76.67,86.354-70.757" style="fill: #2b3656; stroke-width: 0px;"/>
          <path d="M383.926,274.656c53.653,14.663,56.496,96.084,32.402,110.65-5.069,3.064-9.23,2.383-10.597,2.159-6.407-1.049-15.55-9.182-12.813-26.537,5.247-33.266-11.36-46.772-23.06-47.471-2.456-.147-24.243-.386-32.839,35.919-3.842,16.226-12.475,22.357-18.647,19.888-5.91-2.365-8.655-13.848-6.118-25.598,10.197-47.239,39.67-75.617,71.673-69.009" style="fill: #2b3656; stroke-width: 0px;"/>
          <path d="M419.503,444.885c8.994,1.639,18.269,3.296,27.813,4.966,25.188,4.408,50.812,8.658,76.388,12.694-11.034,56.322-70.491,57.021-94.35,23.492-11.952-16.798-10.48-33.864-9.851-41.152" style="fill: #2b3656; stroke-width: 0px;"/>
        </g>
      </g>
    </g>
    <path d="M938.737,465.125c5.693-58.634-2.926-98.76-29.41-127.051-52.743-48.373-94.415,48.157-105.842,132.154-8.587,83.961,5.977,153.038,63.469,126.88,33.148-18.502,61.088-59.022,71.783-131.983" style="fill: #2b3656; stroke-width: 0px;"/>
    <path d="M938.737,465.125c5.693-58.634-2.926-98.76-29.41-127.051-52.743-48.373-94.415,48.157-105.842,132.154-8.587,83.961,5.977,153.038,63.469,126.88,33.148-18.502,61.088-59.022,71.783-131.983" style="fill: url(#_Безымянный_градиент_72); stroke-width: 0px;"/>
    <path d="M945.929,472.045c4.075-41.972-2.094-70.695-21.052-90.946-37.755-34.627-67.584,34.472-75.764,94.599-6.147,60.101,4.278,109.548,45.432,90.823,23.728-13.244,43.728-42.249,51.384-94.476" style="fill: #bfc4d8; stroke-width: 0px;"/>
    <g>
      <path d="M906.962,490.709h0c7.172,11.999,17.192,11.379,22.319-1.239l51.992-127.94c22.562-55.521,83.587-225.899,77.883-235.442s-78.613,140.953-101.896,195.267l-53.653,125.16c-5.291,12.344-3.817,32.194,3.356,44.193Z" style="fill: #757d97; stroke-width: 0px;"/>
      <path d="M907.08,436.131c-12.62,13.979-19.662,41.445-15.729,61.348,3.933,19.902,17.352,24.704,29.972,10.725,12.62-13.979,19.662-41.445,15.729-61.348-3.933-19.902-17.352-24.704-29.972-10.725Z" style="fill: #757d97; stroke-width: 0px;"/>
    </g>
  </g>
  <g>
    <path d="M735.545,791.137c-9.008,19.721-12.095,45.713-7.11,62.94,26.919,93.024,118.346,156.362,172.097,171.928,58.373,16.905,104.232-3.145,104.055-45.824l-269.042-189.044Z" style="fill: #2b3656; stroke-width: 0px;"/>
    <path d="M906.295,793.534c-34.739-101.032-198.539-51.598-172.097,39.778,26.919,93.024,118.346,156.362,172.097,171.928,77.831,22.54,128.754-14.515,77.831-61.073-38.787-35.462-52.582-77.199-77.831-150.633Z" style="fill: url(#_Безымянный_градиент_80-2); stroke-width: 0px;"/>
  </g>
  <g>
    <path d="M26.702,482.249c18.446-14.972,48.705-11.221,65.842,14.506,29.136,43.74,67.69,77.476,128.742,114.828,68.267,41.766,63.384,121.055,8.445,148.474L26.702,482.249Z" style="fill: #2b3656; stroke-width: 0px;"/>
    <path d="M202.506,620.249c93.999,57.509,58.642,181.027-50.363,144.869C60.228,734.629,8.732,628.528,1.541,573.033c-10.412-80.357,33.972-125.036,72.223-67.612,29.136,43.74,67.69,77.476,128.742,114.828Z" style="fill: url(#_Безымянный_градиент_80-3); stroke-width: 0px;"/>
  </g>
</svg>