<svg xmlns="http://www.w3.org/2000/svg" viewBox="0 0 50 50" width="50px" height="50px">
  <path d="M 44.25 1 C 43.039063 1 41.859375 1.496094 40.9375 2.40625 L 40.90625 2.40625 L 39.5 3.78125 L 33.25 10.03125 L 2.96875 10.03125 C 2.414063 10.03125 1.96875 10.480469 1.96875 11.03125 L 1.96875 47.03125 C 1.96875 47.582031 2.414063 48.03125 2.96875 48.03125 L 38.96875 48.03125 C 39.523438 48.03125 39.96875 47.582031 39.96875 47.03125 L 39.96875 16.75 L 46.28125 10.4375 C 46.320313 10.398438 46.371094 10.347656 46.4375 10.28125 C 46.566406 10.152344 46.730469 9.988281 46.90625 9.8125 C 47.253906 9.464844 47.59375 9.09375 47.59375 9.09375 C 49.441406 7.246094 49.46875 4.25 47.625 2.40625 L 47.625 2.375 C 46.699219 1.453125 45.46875 1 44.25 1 Z M 44.25 3 C 44.949219 3 45.644531 3.269531 46.1875 3.8125 C 47.261719 4.886719 47.25 6.574219 46.1875 7.65625 L 42.34375 3.8125 C 42.882813 3.285156 43.558594 3 44.25 3 Z M 40.90625 5.1875 L 44.8125 9.09375 L 22.21875 31.65625 L 18.34375 27.78125 Z M 16.9375 29.21875 L 20.78125 33.0625 L 15.96875 34.03125 Z" fill="#000000" />
</svg>