<svg xmlns="http://www.w3.org/2000/svg" viewBox="0 0 64 64" width="64px" height="64px">
  <path d="M 20.666016 2.2792969 L 17.255859 4.3710938 L 18.302734 6.0761719 L 21.351562 11.044922 L 22.396484 12.75 L 25.806641 10.658203 L 24.761719 8.9550781 L 21.710938 3.984375 L 20.666016 2.2792969 z M 43.275391 2.2988281 L 42.275391 4.0292969 L 39.359375 9.0800781 L 38.359375 10.8125 L 41.822266 12.8125 L 42.822266 11.080078 L 45.738281 6.0292969 L 46.738281 4.2988281 L 43.275391 2.2988281 z M 5.3203125 15.255859 L 3.2636719 18.685547 L 4.9785156 19.714844 L 9.9785156 22.714844 L 11.693359 23.744141 L 13.751953 20.314453 L 12.035156 19.285156 L 7.0351562 16.285156 L 5.3203125 15.255859 z M 59.693359 15.255859 L 57.978516 16.285156 L 52.978516 19.285156 L 51.263672 20.314453 L 53.320312 23.744141 L 55.035156 22.714844 L 60.035156 19.714844 L 61.751953 18.685547 L 59.693359 15.255859 z M 22.912109 16 C 21.824109 16 20.908344 16.812578 20.777344 17.892578 C 19.927344 24.905578 17.007813 49 17.007812 49 L 48.007812 47.935547 C 48.007812 47.935547 45.100187 24.737766 44.242188 17.884766 C 44.107187 16.807766 43.192422 16 42.107422 16 L 22.912109 16 z M 53.320312 32.255859 L 51.263672 35.685547 L 52.978516 36.714844 L 57.978516 39.714844 L 59.693359 40.744141 L 61.751953 37.314453 L 60.035156 36.285156 L 55.035156 33.285156 L 53.320312 32.255859 z M 11.693359 33.255859 L 9.9785156 34.285156 L 4.9785156 37.285156 L 3.2636719 38.314453 L 5.3203125 41.744141 L 7.0351562 40.714844 L 12.035156 37.714844 L 13.751953 36.685547 L 11.693359 33.255859 z M 12.007812 51 L 12.007812 61 L 53.007812 61 L 53.007812 52 L 12.007812 51 z" fill="#F90707" />
</svg>